<svg xmlns="http://www.w3.org/2000/svg" xmlns:xlink="http://www.w3.org/1999/xlink" width="179.52" height="67.585" viewBox="0 0 179.52 67.585"><defs><style>.a,.b{fill:#262839;}.a,.b,.c,.d,.e,.f,.g{stroke:#707070;}.b{fill-rule:evenodd;}.c{fill:url(#a);}.d{fill:url(#b);}.e{fill:url(#c);}.f{fill:url(#d);}.g{fill:url(#e);}</style><linearGradient id="a" x1="0.806" y1="0.72" x2="0.078" y2="0.06" gradientUnits="objectBoundingBox"><stop offset="0" stop-color="#ff3100"/><stop offset="1" stop-color="#ff9200"/></linearGradient><linearGradient id="b" x1="1.36" y1="5.165" x2="-0.136" y2="-2.952" xlink:href="#a"/><linearGradient id="c" x1="1.847" y1="3.706" x2="-1.565" y2="-4.413" xlink:href="#a"/><linearGradient id="d" x1="1.582" y1="4.485" x2="-0.622" y2="-3.633" xlink:href="#a"/><linearGradient id="e" x1="0.721" y1="0.476" x2="-2.388" y2="-1.19" xlink:href="#a"/></defs><g transform="translate(0.5 0.5)"><g transform="translate(82.177 11.343)"><g transform="translate(0)"><g transform="translate(38.747 0.391)"><path className="a" d="M910.716,258.29h-.081a2.887,2.887,0,0,0-2.888,2.888v10.991h-8.719V261.178a2.886,2.886,0,0,0-2.888-2.888h-.079a2.888,2.888,0,0,0-2.889,2.888v27.838a2.889,2.889,0,0,0,2.889,2.888h.079a2.887,2.887,0,0,0,2.888-2.888V278.025h8.719v10.991a2.888,2.888,0,0,0,2.888,2.888h.081a2.889,2.889,0,0,0,2.888-2.888V261.178A2.888,2.888,0,0,0,910.716,258.29Z" transform="translate(-893.173 -258.255)"/><path className="a" d="M1282.975,289.015a2.889,2.889,0,0,1-2.888,2.888h-.08a2.888,2.888,0,0,1-2.888-2.888V261.177a2.887,2.887,0,0,1,2.888-2.888h.08a2.888,2.888,0,0,1,2.888,2.888Z" transform="translate(-1250.782 -258.255)"/><path className="a" d="M1453.14,262.234a2.871,2.871,0,0,0,.407-1.478v-.081a2.889,2.889,0,0,0-2.889-2.888H1435.88a2.889,2.889,0,0,0-2.888,2.888v.081a2.888,2.888,0,0,0,2.888,2.888h9.908l-12.472,23.5a2.959,2.959,0,0,0,2.564,4.323h14.778a2.889,2.889,0,0,0,2.889-2.888v-.08a2.889,2.889,0,0,0-2.889-2.888h-9.9l12.23-23.043A3.028,3.028,0,0,0,1453.14,262.234Z" transform="translate(-1395.951 -257.787)"/></g><path className="b" d="M343.753,280.672h8.458c.2,0,.409,0,.613,0a4.179,4.179,0,0,0,3.991-3.431,5.664,5.664,0,0,0,.079-.975q0-2.7,0-5.394,0-4.443,0-8.886a5.718,5.718,0,0,0-.091-1.1,4.184,4.184,0,0,0-3.436-3.314,5.964,5.964,0,0,0-.854-.068q-7.2,0-14.4,0a4.815,4.815,0,0,0-1.509.219,4.19,4.19,0,0,0-2.878,3.876c0,.224,0,.449,0,.674v11.4c0,.185,0,.369,0,.552a2.707,2.707,0,0,1-5.4.166q-.012-.245-.012-.49,0-6.068,0-12.135a9.792,9.792,0,0,1,.4-2.84,9.62,9.62,0,0,1,9.173-6.838q7.418,0,14.833,0a9.622,9.622,0,0,1,9.271,7.109,8.823,8.823,0,0,1,.322,2.237c0,.144,0,.287,0,.429q0,7.232,0,14.464a10.5,10.5,0,0,1-.11,1.647,9.631,9.631,0,0,1-8.143,8.033,12.494,12.494,0,0,1-1.528.1c-.572.014-1.144,0-1.716,0q-6.345,0-12.686,0c-1,0-.89-.1-.892.877,0,1.615,0,3.227,0,4.842,0,.244-.009.49-.032.734a2.706,2.706,0,0,1-5.227.6,2.657,2.657,0,0,1-.169-.838c0-.142,0-.286,0-.429v-8.151a4.119,4.119,0,0,1,.071-.913,2.721,2.721,0,0,1,2.512-2.149c.2-.013.409-.006.612-.006h8.764S343.753,280.671,343.753,280.672Z" transform="translate(-328.303 -252.088)"/></g></g><path className="c" d="M-774.315,86.732h-23.751A15.45,15.45,0,0,0-813.5,102.166v19.995a4.366,4.366,0,0,0,4.365,4.367,4.366,4.366,0,0,0,4.365-4.367V102.166a6.711,6.711,0,0,1,6.7-6.7h23.751a6.711,6.711,0,0,1,6.7,6.7v23.751a6.711,6.711,0,0,1-6.7,6.7h-23.759c-.043,0-.083,0-.125,0h-5.366a4.372,4.372,0,0,0-4.309,4.375,4.352,4.352,0,0,0,.7,2.375l.233.327,9.013,12.566,0-10.909h23.613a15.454,15.454,0,0,0,15.435-15.435V102.166A15.453,15.453,0,0,0-774.315,86.732Z" transform="translate(813.498 -86.732)"/><g transform="translate(14.036 14.035)"><path className="d" d="M-582.337,294.008a2.679,2.679,0,0,1-2.7,2.663h-21.15a2.68,2.68,0,0,1-2.7-2.663h0a2.68,2.68,0,0,1,2.7-2.662h21.15a2.679,2.679,0,0,1,2.7,2.662Z" transform="translate(608.882 -291.346)"/><path className="e" d="M-597.242,602.874a2.678,2.678,0,0,1-2.7,2.659h-6.245a2.679,2.679,0,0,1-2.7-2.659h0a2.682,2.682,0,0,1,2.7-2.664h6.245a2.682,2.682,0,0,1,2.7,2.664Z" transform="translate(608.882 -579.024)"/><path className="f" d="M-590.855,448.443a2.678,2.678,0,0,1-2.7,2.661h-12.633a2.68,2.68,0,0,1-2.7-2.661h0a2.681,2.681,0,0,1,2.7-2.663h12.633a2.679,2.679,0,0,1,2.7,2.663Z" transform="translate(608.882 -435.187)"/></g><path className="g" d="M23.163,298.907v11.188l12.776,7.376V291.53Z" transform="translate(34.227 -277.482)"/></g></svg>