<?xml version="1.0" encoding="iso-8859-1"?>
<!-- Generator: Adobe Illustrator 16.0.0, SVG Export Plug-In . SVG Version: 6.00 Build 0)  -->
<!DOCTYPE svg PUBLIC "-//W3C//DTD SVG 1.1//EN" "http://www.w3.org/Graphics/SVG/1.1/DTD/svg11.dtd">
<svg version="1.1" id="Layer_1" xmlns="http://www.w3.org/2000/svg" xmlns:xlink="http://www.w3.org/1999/xlink" x="0px" y="0px"
	 width="100px" height="100px" viewBox="0 0 100 100" style="enable-background:new 0 0 100 100;" xml:space="preserve">
<g style="display:none;">
	<linearGradient id="SVGID_1_" gradientUnits="userSpaceOnUse" x1="28.4058" y1="51.457" x2="74.8438" y2="51.457">
		<stop  offset="0" style="stop-color:#F78F30"/>
		<stop  offset="1" style="stop-color:#F04926"/>
	</linearGradient>
	<path style="display:inline;fill:none;stroke:url(#SVGID_1_);stroke-width:2;stroke-miterlimit:10;" d="M71.751,46.332
		c-1.75-7.333-10.668-9.833-10.668-9.833h-9.25h-0.416h-9.25c0,0-8.917,2.5-10.667,9.833l-2.083,14.333c0,0,1.416,9.5,9.833,4.082
		l5.333-8.665l6.969,0.016l7.115-0.016l5.334,8.665c8.416,5.418,9.832-4.082,9.832-4.082L71.751,46.332z"/>
	<linearGradient id="SVGID_2_" gradientUnits="userSpaceOnUse" x1="41.8643" y1="46.5352" x2="43.708" y2="46.5352">
		<stop  offset="0" style="stop-color:#F78F30"/>
		<stop  offset="1" style="stop-color:#F04926"/>
	</linearGradient>
	<rect x="41.864" y="41.613" style="display:inline;fill:url(#SVGID_2_);" width="1.844" height="9.844"/>
	
		<linearGradient id="SVGID_3_" gradientUnits="userSpaceOnUse" x1="370.8721" y1="-275.7163" x2="372.7158" y2="-275.7163" gradientTransform="matrix(0.0063 1 -1 0.0063 -235.2803 -323.5039)">
		<stop  offset="0" style="stop-color:#F78F30"/>
		<stop  offset="1" style="stop-color:#F04926"/>
	</linearGradient>
	<polygon style="display:inline;fill:url(#SVGID_3_);" points="37.87,47.488 37.858,45.644 47.703,45.582 47.714,47.425 	"/>
	<linearGradient id="SVGID_4_" gradientUnits="userSpaceOnUse" x1="59.7197" y1="42.332" x2="59.7358" y2="44.873">
		<stop  offset="0" style="stop-color:#F78F30"/>
		<stop  offset="1" style="stop-color:#F04926"/>
	</linearGradient>
	<circle style="display:inline;fill:url(#SVGID_4_);" cx="59.729" cy="43.602" r="1.271"/>
	<linearGradient id="SVGID_5_" gradientUnits="userSpaceOnUse" x1="56.0947" y1="45.2642" x2="56.1108" y2="47.8061">
		<stop  offset="0" style="stop-color:#F78F30"/>
		<stop  offset="1" style="stop-color:#F04926"/>
	</linearGradient>
	<circle style="display:inline;fill:url(#SVGID_5_);" cx="56.104" cy="46.535" r="1.271"/>
	<linearGradient id="SVGID_6_" gradientUnits="userSpaceOnUse" x1="62.8037" y1="45.2646" x2="62.8198" y2="47.8066">
		<stop  offset="0" style="stop-color:#F78F30"/>
		<stop  offset="1" style="stop-color:#F04926"/>
	</linearGradient>
	<circle style="display:inline;fill:url(#SVGID_6_);" cx="62.813" cy="46.535" r="1.271"/>
	<linearGradient id="SVGID_7_" gradientUnits="userSpaceOnUse" x1="59.4707" y1="48.5962" x2="59.4868" y2="51.1381">
		<stop  offset="0" style="stop-color:#F78F30"/>
		<stop  offset="1" style="stop-color:#F04926"/>
	</linearGradient>
	<circle style="display:inline;fill:url(#SVGID_7_);" cx="59.479" cy="49.869" r="1.271"/>
</g>
<g>
	<linearGradient id="SVGID_8_" gradientUnits="userSpaceOnUse" x1="26.0845" y1="50.5005" x2="55.918" y2="50.5005">
		<stop  offset="0" style="stop-color:#F78F30"/>
		<stop  offset="1" style="stop-color:#F04926"/>
	</linearGradient>
	<path style="fill:url(#SVGID_8_);" d="M55.48,53.792l0.438-5.563l-4.438-0.563l-0.313-2.188l2-3.125l-3.688-4.219l-3.375,2.781
		l-1.813-1.188v-4.375H38.23l-0.229,4.959l-2.667,0.583l-3.167-2.916l-3.667,4.333l2.833,4.083l-1.333,1.417l-3.917,0.083v6.167
		l4.25-0.083l0.5,2.333l-2.25,2.833l3.75,4.25l3.667-2.833l1.5,0.583l0.729,4.5h5.521l0.292-3.792l1.938-1l3.438,2.75l3.875-4.063
		l-2.5-4l1.25-1.75H55.48z M41.095,56.345c-2.768,0-5.011-2.243-5.011-5.012c0-2.767,2.243-5.01,5.011-5.01
		c2.767,0,5.01,2.243,5.01,5.01C46.104,54.102,43.861,56.345,41.095,56.345z"/>
	<linearGradient id="SVGID_9_" gradientUnits="userSpaceOnUse" x1="53.418" y1="37.8335" x2="69.584" y2="37.8335">
		<stop  offset="0" style="stop-color:#F78F30"/>
		<stop  offset="1" style="stop-color:#F04926"/>
	</linearGradient>
	<path style="fill:url(#SVGID_9_);" d="M69.348,39.617l0.236-3.015l-2.404-0.305l-0.17-1.186l1.084-1.693l-1.998-2.286l-1.829,1.508
		l-0.981-0.644v-2.371H60l-0.125,2.688l-1.445,0.315l-1.715-1.58l-1.987,2.349l1.535,2.212l-0.723,0.769l-2.122,0.045v3.342
		l2.303-0.045l0.271,1.264l-1.22,1.535l2.032,2.303l1.986-1.535l0.813,0.316L60,46.041h2.991l0.157-2.055l1.051-0.542l1.862,1.49
		l2.101-2.201l-1.355-2.168l0.678-0.948H69.348z M61.552,41c-1.499,0-2.716-1.215-2.716-2.716c0-1.499,1.217-2.714,2.716-2.714
		s2.715,1.215,2.715,2.714C64.267,39.785,63.051,41,61.552,41z"/>
	<linearGradient id="SVGID_10_" gradientUnits="userSpaceOnUse" x1="54.418" y1="62.166" x2="70.584" y2="62.166">
		<stop  offset="0" style="stop-color:#F78F30"/>
		<stop  offset="1" style="stop-color:#F04926"/>
	</linearGradient>
	<path style="fill:url(#SVGID_10_);" d="M70.348,63.95l0.236-3.015l-2.404-0.305l-0.17-1.186l1.084-1.693l-1.998-2.286l-1.829,1.508
		l-0.981-0.644v-2.371H61l-0.125,2.688l-1.445,0.315l-1.715-1.58l-1.987,2.349l1.535,2.212l-0.723,0.769l-2.122,0.045v3.342
		l2.303-0.045l0.271,1.264l-1.22,1.535l2.032,2.303l1.986-1.535l0.813,0.316L61,70.374h2.991l0.157-2.055l1.051-0.542l1.862,1.49
		l2.101-2.201l-1.355-2.168l0.678-0.948H70.348z M62.552,65.333c-1.499,0-2.716-1.215-2.716-2.716c0-1.499,1.217-2.714,2.716-2.714
		s2.715,1.215,2.715,2.714C65.267,64.118,64.051,65.333,62.552,65.333z"/>
</g>
</svg>
